HIERARCHY
ROOT Hips
{
	OFFSET	-5.6547	89.1851	5.6790
	CHANNELS 6 Xposition Yposition Zposition Zrotation Yrotation Xrotation
	JOINT Chest
	{
		OFFSET	0.0000	16.3830	0.0000
		CHANNELS 3 Zrotation Yrotation Xrotation
		JOINT LeftCollar
		{
			OFFSET	3.8100	32.7660	-3.8100
			CHANNELS 3 Zrotation Yrotation Xrotation
			JOINT LeftUpArm
			{
				OFFSET	14.5367	0.0000	3.8951
				CHANNELS 3 Zrotation Yrotation Xrotation
				JOINT LeftLowArm
				{
					OFFSET	30.2895	0.0000	0.0000
					CHANNELS 3 Zrotation Yrotation Xrotation
					JOINT LeftHand
					{
						OFFSET	27.2415	0.0000	0.0000
						CHANNELS 3 Zrotation Yrotation Xrotation
						End Site
						{
							OFFSET	20.3835	0.0000	0.0000
						}
					}
				}
			}
		}
		JOINT Neck
		{
			OFFSET	0.0000	32.7660	0.0000
			CHANNELS 3 Zrotation Yrotation Xrotation
			JOINT Head
			{
				OFFSET	0.0000	19.6215	0.0000
				CHANNELS 3 Zrotation Yrotation Xrotation
				End Site
				{
					OFFSET	0.0000	0.0000	10.1600
				}
			}
		}
		JOINT RightCollar
		{
			OFFSET	-3.8100	32.7660	-3.8100
			CHANNELS 3 Zrotation Yrotation Xrotation
			JOINT RightUpArm
			{
				OFFSET	-14.5367	0.0000	3.8951
				CHANNELS 3 Zrotation Yrotation Xrotation
				JOINT RightLowArm
				{
					OFFSET	-30.2895	0.0000	0.0000
					CHANNELS 3 Zrotation Yrotation Xrotation
					JOINT RightHand
					{
						OFFSET	-27.2415	0.0000	0.0000
						CHANNELS 3 Zrotation Yrotation Xrotation
						End Site
						{
							OFFSET	-20.3835	0.0000	0.0000
						}
					}
				}
			}
		}
	}
	JOINT LeftUpLeg
	{
		OFFSET	9.3345	0.0000	0.0000
		CHANNELS 3 Zrotation Yrotation Xrotation
		JOINT LeftLowLeg
		{
			OFFSET	0.0000	-45.5295	0.0000
			CHANNELS 3 Zrotation Yrotation Xrotation
			JOINT LeftFoot
			{
				OFFSET	0.0000	-44.1960	0.0000
				CHANNELS 3 Zrotation Yrotation Xrotation
				End Site
				{
					OFFSET	0.0000	0.0000	26.4795
				}
			}
		}
	}
	JOINT RightUpLeg
	{
		OFFSET	-9.3345	0.0000	0.0000
		CHANNELS 3 Zrotation Yrotation Xrotation
		JOINT RightLowLeg
		{
			OFFSET	0.0000	-45.5295	0.0000
			CHANNELS 3 Zrotation Yrotation Xrotation
			JOINT RightFoot
			{
				OFFSET	0.0000	-44.1960	0.0000
				CHANNELS 3 Zrotation Yrotation Xrotation
				End Site
				{
					OFFSET	0.0000	0.0000	26.4795
				}
			}
		}
	}
}
MOTION
Frames: 13
Frame Time: 0.0166666666667
-5.0170	88.6441	-1.3065	-1.7266	9.7109	10.8100	5.2055	8.1635	10.8539	-12.1662	-6.0760	-5.8511	-46.3164	-8.0980	27.3023	9.4642	-39.9469	8.2802	-15.1631	-11.2637	-34.3127	-1.5158	-1.7393	7.1012	-1.5158	-1.7393	7.1012	0.6832	6.8421	2.6783	69.2152	34.1446	64.7622	2.9823	36.2033	18.1258	5.9475	-0.6936	37.8389	9.1017	4.6522	-19.7650	-2.9135	-5.1550	7.7526	-5.9119	-5.1618	1.0221	-10.0591	-0.6529	-15.2272	1.5780	-13.3587	5.2970	8.7432	-3.6082	1.6643	
-4.8662	88.7190	-1.1478	-1.8469	9.4753	11.0115	4.9573	8.4004	10.5077	-12.2128	-5.7955	-5.9355	-45.6777	-7.5625	27.3282	12.4350	-40.7040	4.8317	-19.3661	-14.3642	-36.3246	-1.3660	-1.7960	7.0242	-1.3660	-1.7960	7.0242	0.3191	6.6724	3.0173	68.7316	33.7884	63.7083	2.0699	37.3934	17.4309	5.4403	-2.1772	35.0796	9.1314	4.7067	-19.6490	-2.8188	-5.0944	7.4608	-5.9273	-4.9932	1.0243	-9.8557	-0.6645	-14.9926	1.6009	-13.1551	4.7639	8.8415	-3.4846	1.8405	
-4.7316	88.7884	-0.9656	-2.0479	9.2376	11.1500	4.8971	8.6763	10.2652	-12.3584	-5.6212	-6.0062	-43.4371	-4.0751	26.0168	14.7169	-45.0494	2.6794	-22.5372	-18.5440	-39.2435	-1.2624	-1.8766	6.8338	-1.2624	-1.8766	6.8338	0.0444	6.5382	3.2484	67.6769	33.3842	62.5799	1.0497	38.8795	16.0077	6.3391	-2.9618	33.2397	9.2592	4.9054	-19.6528	-2.8383	-5.3196	7.3842	-5.9246	-4.6681	0.9775	-9.6188	-0.6237	-14.9115	1.6100	-13.2380	4.4039	8.8538	-3.1849	1.9915	
-4.6564	88.8436	-0.8847	-2.3616	9.1545	11.3773	4.9998	8.9158	10.0271	-12.8722	-5.6724	-6.1550	-42.1123	-2.5433	24.7275	20.1979	-47.5200	-2.4716	-27.2399	-20.9099	-40.5315	-1.1791	-1.9655	6.5738	-1.1791	-1.9655	6.5738	-0.7255	6.5401	3.1491	66.7424	32.7600	60.8911	0.0051	39.8741	13.9360	7.8512	-2.8680	32.0737	9.5226	4.7330	-19.5418	-2.7134	-5.0829	7.0290	-5.9087	-4.5708	0.9898	-9.1682	-0.9959	-14.6366	1.6968	-12.9679	3.6841	8.9009	-2.9356	2.2884	
-4.4901	88.9519	-0.6235	-2.7206	9.2821	11.6702	5.2059	9.0485	9.7862	-13.3176	-5.6368	-6.0542	-41.0275	-1.8649	23.1974	24.5094	-49.2941	-6.8536	-30.2804	-23.2887	-42.0126	-1.0879	-2.0841	6.1794	-1.0879	-2.0841	6.1794	-0.9582	6.4498	2.9476	65.2903	32.0019	59.2503	-0.5933	40.4538	11.9437	9.3392	-2.3430	30.3422	9.8588	4.5232	-19.7149	-2.6315	-4.9274	6.8481	-5.9102	-4.5294	1.0080	-8.6566	-1.4903	-14.7261	1.6808	-12.7505	3.2177	9.1301	-2.8325	2.6639	
-4.3874	89.0397	-0.4666	-3.1301	9.5962	12.0221	5.5524	8.9459	9.4157	-13.6675	-5.2866	-5.7146	-39.9649	-1.8560	21.2492	28.5606	-50.8813	-11.1240	-33.7795	-23.3920	-42.0215	-1.1644	-2.1880	5.9034	-1.1644	-2.1880	5.9034	-1.6082	6.6946	2.7834	64.5679	31.3831	57.2141	-1.1312	41.6498	9.6088	11.0878	-2.5875	29.4583	10.3030	4.2344	-20.0586	-2.6851	-4.8790	6.9910	-5.8077	-4.4623	0.7548	-8.1024	-2.1998	-15.0726	1.7021	-12.3705	3.0909	9.3312	-2.8654	2.8543	
-4.2531	89.1287	-0.1529	-3.5620	10.0191	12.3637	5.8087	9.0911	9.1437	-13.7183	-4.9148	-5.4759	-38.7197	-2.6213	19.5481	33.9813	-51.8027	-16.5674	-30.1034	-29.9774	-50.3183	-1.1985	-2.4630	5.6216	-1.1985	-2.4630	5.6216	-1.7706	6.6083	2.5729	63.5693	30.7516	55.0370	-1.2680	42.9265	8.7071	12.4440	-2.5955	27.7524	10.8160	3.8787	-20.2664	-2.7065	-4.6291	6.7598	-5.8074	-4.5901	0.8018	-7.5498	-2.6896	-15.3877	1.6437	-12.2594	2.3280	9.4845	-3.0101	3.5926	
-4.1511	89.2300	0.1319	-4.0092	10.5283	12.6263	6.1621	9.0132	8.6504	-13.5811	-4.4133	-5.1658	-37.7329	-3.7673	17.9142	34.9497	-52.4060	-17.8558	-28.9332	-32.1083	-53.5363	-1.1003	-2.6526	5.4146	-1.1003	-2.6526	5.4146	-1.9274	6.7050	2.6309	62.0722	30.0195	52.2586	0.0552	44.4409	10.0375	12.9423	-2.2701	25.8293	11.1894	3.6851	-20.3693	-2.6262	-4.6675	6.4249	-5.8214	-4.7140	0.8875	-6.7701	-3.3466	-15.2288	1.4457	-11.8146	1.3349	9.6409	-3.2774	4.1285	
-3.9894	89.3460	0.4254	-4.3295	10.9801	12.7723	6.2604	9.1186	8.0839	-13.2044	-3.9243	-4.8040	-36.8595	-5.3900	16.4165	41.4230	-51.2394	-23.9728	-31.3556	-34.4245	-56.6362	-0.8095	-2.9057	5.2483	-0.8095	-2.9057	5.2483	-2.0019	6.9012	2.8113	61.1260	29.2426	50.2532	-2.2478	46.2486	6.7944	14.8854	-2.1096	24.0888	11.3991	3.5963	-20.4195	-2.5414	-4.8262	6.1634	-5.8368	-4.8206	0.9806	-6.4249	-3.5073	-15.6465	1.3176	-11.8778	1.2580	9.7197	-3.5226	4.4495	
-3.8489	89.4313	0.6343	-4.5403	11.3419	12.8824	6.4397	8.9390	7.8217	-12.9450	-3.2864	-4.9497	-36.0359	-6.9533	15.3270	43.0820	-50.4267	-25.8472	-31.9183	-36.2069	-58.2954	-0.5986	-3.0178	4.9162	-0.5986	-3.0178	4.9162	-2.0562	7.2074	2.7470	59.8452	28.3921	48.6528	-3.0080	47.5006	6.3817	15.2180	-1.0355	22.3691	11.4485	3.6061	-20.4877	-2.4201	-5.0843	5.9800	-5.8763	-4.8850	1.0966	-6.3283	-3.3538	-15.9380	1.2437	-11.9216	0.9676	9.7660	-4.0284	4.8839	
-3.7275	89.4906	0.7606	-4.6506	11.5815	13.0117	6.5234	8.8201	7.5957	-12.5415	-2.7458	-5.3106	-34.9550	-8.6321	13.9672	43.1933	-49.8966	-26.1307	-32.7168	-37.6228	-59.3150	-0.3575	-3.1371	4.4658	-0.3575	-3.1371	4.4658	-2.0620	7.4614	2.6849	58.6702	27.7070	47.8265	-4.2416	48.5321	5.1610	14.9225	0.3467	20.9860	11.4490	3.7196	-20.6313	-2.4055	-5.3265	5.9180	-5.8560	-4.9566	1.2028	-6.5100	-2.7863	-16.2349	1.3115	-12.4560	0.9504	9.8325	-4.4020	4.9713	
-3.6591	89.5190	0.8166	-4.6840	11.7411	13.1087	6.2602	9.3119	7.2805	-11.9320	-3.0393	-5.3048	-34.1731	-9.6972	12.7980	43.8683	-49.5866	-26.3060	-34.2209	-38.7728	-59.5386	0.0674	-3.5408	4.0267	0.0674	-3.5408	4.0267	-1.6640	7.0466	2.8162	58.0642	27.3876	47.5340	-7.1748	49.0896	2.9623	15.3683	1.9588	20.0602	11.3404	3.8144	-20.7217	-2.3481	-5.4675	5.8293	-5.8568	-5.0656	1.3035	-6.6861	-2.0391	-16.5153	1.2733	-13.2844	1.1310	9.7906	-4.4867	4.9264	
-3.5597	89.5394	0.8265	-4.6730	11.8076	13.1222	6.2757	9.3274	7.3521	-11.5980	-3.2411	-5.8748	-30.8803	-12.1548	8.3783	36.3989	-50.1312	-20.4435	-35.8605	-39.7745	-58.7827	0.3206	-3.7463	3.3832	0.3206	-3.7463	3.3832	-1.4804	7.5135	2.7120	56.8575	26.8278	46.9773	-8.6560	49.7436	1.4336	15.6512	2.5424	19.9072	11.2398	3.8785	-20.7206	-2.2710	-5.5317	5.7254	-5.9188	-5.1335	1.4010	-6.8475	-1.5975	-16.7037	1.3309	-13.5303	1.3274	9.6148	-4.6861	4.8592	
